<svg width="26" height="26" viewBox="0 0 26 26" fill="none" xmlns="http://www.w3.org/2000/svg">
<path opacity="0.4" fill-rule="evenodd" clip-rule="evenodd" d="M22.4785 10.4275C22.4785 10.607 22.333 10.7525 22.1535 10.7525H4.92852C4.74901 10.7525 4.60352 10.607 4.60352 10.4275V8.67902C4.60352 6.54593 6.33902 4.81152 8.47102 4.81152H18.611C20.743 4.81152 22.4785 6.54593 22.4785 8.67902V10.4275ZM18.611 3.18652H8.47102C5.44202 3.18652 2.97852 5.65002 2.97852 8.67902V17.324C2.97852 20.353 5.44202 22.8176 8.47102 22.8176H18.611C20.5372 22.8176 22.2282 21.8166 23.2087 20.3118L23.2845 20.2728V20.1731C23.7937 19.3401 24.1035 18.3705 24.1035 17.324V8.67902C24.1035 5.65002 21.64 3.18652 18.611 3.18652Z" fill="white"/>
<path fill-rule="evenodd" clip-rule="evenodd" d="M12.456 6.24355C11.3742 6.92117 8.67121 8.65763 7.44885 9.44388C7.26706 9.56081 7.35167 9.8413 7.56783 9.8413H18.9307C19.1862 9.8413 19.3419 9.56007 19.2062 9.34362L18.0839 7.55439C16.8901 5.64122 14.3692 5.05405 12.456 6.24355Z" fill="#AAFA00"/>
<path d="M16.1367 16.0598C16.1367 17.011 16.9059 17.779 17.8549 17.779C18.8039 17.779 19.5742 17.011 19.5742 16.0598C19.5742 15.1097 18.8039 14.3416 17.8549 14.3416C16.9059 14.3416 16.1367 15.1097 16.1367 16.0598Z" fill="#AAFA00"/>
</svg>
