<svg width="42" height="42" viewBox="0 0 42 42" fill="none" xmlns="http://www.w3.org/2000/svg">
<g clip-path="url(#clip0_1_40)">
<path fill-rule="evenodd" clip-rule="evenodd" d="M12.3263 0.257731C8.90772 0.411976 5.94471 1.24777 3.55214 3.63024C1.15121 6.02523 0.325797 8.99998 0.171168 12.383C0.0750464 14.4945 -0.48702 30.4464 1.14285 34.6299C2.24197 37.4521 4.40672 39.6221 7.25482 40.7248C8.58379 41.2417 10.1009 41.5916 12.3263 41.6938C30.934 42.5359 37.8317 42.0774 40.7404 34.6299C41.2565 33.3042 41.6117 31.7884 41.7099 29.5685C42.5604 10.9131 41.5721 6.86941 38.329 3.63024C35.7568 1.06433 32.731 -0.682334 12.3263 0.257731ZM12.4976 37.9419C10.4602 37.8501 9.35487 37.5107 8.61725 37.2251C6.7617 36.5039 5.36795 35.1159 4.65123 33.2712C3.41002 30.0925 3.82168 14.9951 3.93243 12.5522C4.04109 10.1593 4.52586 7.97231 6.21424 6.28395C8.30382 4.19953 11.0035 3.17798 29.3856 4.00759C31.7844 4.11597 33.9764 4.59975 35.669 6.28395C37.7586 8.36835 38.795 11.0888 37.9508 29.4004C37.8588 31.4327 37.5183 32.5354 37.232 33.2712C35.3409 38.1174 30.9904 38.7902 12.4976 37.9419ZM29.5883 9.84821C29.5883 11.2281 30.7104 12.3502 32.0958 12.3502C33.4812 12.3502 34.6054 11.2281 34.6054 9.84821C34.6054 8.46834 33.4812 7.34728 32.0958 7.34728C30.7104 7.34728 29.5883 8.46834 29.5883 9.84821ZM10.2116 20.9747C10.2116 26.8861 15.0156 31.6788 20.9416 31.6788C26.8677 31.6788 31.6716 26.8861 31.6716 20.9747C31.6716 15.0634 26.8677 10.2737 20.9416 10.2737C15.0156 10.2737 10.2116 15.0634 10.2116 20.9747ZM13.977 20.9747C13.977 17.1394 17.0947 14.0277 20.9416 14.0277C24.7885 14.0277 27.9062 17.1394 27.9062 20.9747C27.9062 24.8121 24.7885 27.9248 20.9416 27.9248C17.0947 27.9248 13.977 24.8121 13.977 20.9747Z" fill="#7E7E7E"/>
</g>
<defs>
<clipPath id="clip0_1_40">
<rect width="42" height="42" fill="white"/>
</clipPath>
</defs>
</svg>
