<svg width="42" height="42" viewBox="0 0 42 42" fill="none" xmlns="http://www.w3.org/2000/svg">
<path d="M6.88447 19.3225C6.88447 19.3225 21.2034 13.464 26.1695 11.4012C28.073 10.576 34.529 7.9355 34.529 7.9355C34.529 7.9355 37.5086 6.7805 37.2603 9.58575C37.1774 10.741 36.5153 14.7841 35.8531 19.1574C34.86 25.346 33.7839 32.112 33.7839 32.112C33.7839 32.112 33.6186 34.0098 32.2116 34.3399C30.8043 34.67 28.4869 33.1847 28.073 32.8546C27.7421 32.607 21.8656 28.8939 19.7137 27.0787C19.1343 26.5837 18.4721 25.5934 19.7964 24.4382C22.776 21.7154 26.3351 18.3322 28.4869 16.187C29.48 15.1967 30.4734 12.8862 26.3351 15.6917C20.4586 19.7349 14.6648 23.5306 14.6648 23.5306C14.6648 23.5306 13.3407 24.3557 10.8576 23.6131C8.3746 22.8704 5.47769 21.8804 5.47769 21.8804C5.47769 21.8804 3.49144 20.6425 6.88491 19.3225H6.88447Z" stroke="#7E7E7E" stroke-width="2.625"/>
</svg>
