<svg width="44" height="45" viewBox="0 0 44 45" fill="none" xmlns="http://www.w3.org/2000/svg">
<rect y="0.5" width="44" height="44" rx="22" fill="white"/>
<path d="M23.2475 27.1619H19.3508V26.5737C19.3508 23.8566 20.9768 22.5121 22.4065 21.3637C23.5559 20.4393 24.5651 19.599 24.5651 18.2264C24.5651 16.6298 23.668 15.7054 22.0701 15.7054C20.36 15.7054 19.2947 16.9379 19.2947 18.8987H14.7812C14.7812 14.613 17.8089 11.6719 22.1822 11.6719C26.5836 11.6719 29.2188 13.9968 29.2188 17.9183C29.2188 20.9715 27.2283 22.4001 25.6304 23.4925C24.3408 24.3608 23.2475 25.2011 23.2475 26.5737V27.1619ZM21.4253 33.1562C19.9956 33.1562 18.8462 32.0078 18.8462 30.6353C18.8462 29.2347 19.9956 28.0863 21.4253 28.0863C22.827 28.0863 24.0044 29.2627 24.0044 30.6353C24.0044 31.9798 22.827 33.1562 21.4253 33.1562Z" fill="#7E7E7E"/>
</svg>
