<svg width="49" height="107" viewBox="0 0 49 107" fill="none" xmlns="http://www.w3.org/2000/svg">
<path d="M6.29842 4.23665H17.4984V103.821H6.29842V4.23665Z" fill="black"/>
<path d="M22.8318 3.17724C22.8318 4.93252 17.9367 6.35546 11.8984 6.35546C5.86011 6.35546 0.965088 4.93252 0.965088 3.17724C0.965088 1.42196 5.86011 -0.000976562 11.8984 -0.000976562C17.9367 -0.000976562 22.8318 1.42196 22.8318 3.17724Z" fill="black"/>
<path d="M22.8318 103.821C22.8318 105.576 17.9367 106.999 11.8984 106.999C5.86011 106.999 0.965088 105.576 0.965088 103.821C0.965088 102.066 5.86011 100.643 11.8984 100.643C17.9367 100.643 22.8318 102.066 22.8318 103.821Z" fill="black"/>
<path d="M32.4318 4.23665H43.6318V103.821H32.4318V4.23665Z" fill="black"/>
<path d="M48.9651 3.17724C48.9651 4.93252 44.0701 6.35546 38.0318 6.35546C31.9934 6.35546 27.0984 4.93252 27.0984 3.17724C27.0984 1.42196 31.9934 -0.000976562 38.0318 -0.000976562C44.0701 -0.000976562 48.9651 1.42196 48.9651 3.17724Z" fill="black"/>
<path d="M48.9651 103.821C48.9651 105.576 44.0701 106.999 38.0318 106.999C31.9934 106.999 27.0984 105.576 27.0984 103.821C27.0984 102.066 31.9934 100.643 38.0318 100.643C44.0701 100.643 48.9651 102.066 48.9651 103.821Z" fill="black"/>
</svg>
