<svg width="75" height="107" viewBox="0 0 75 107" fill="none" xmlns="http://www.w3.org/2000/svg">
<path d="M57.5203 4.23683H68.7002V103.821H57.5203V4.23683Z" fill="black"/>
<path d="M74.0239 3.17742C74.0239 4.93271 69.1377 6.35564 63.1103 6.35564C57.0828 6.35564 52.1966 4.93271 52.1966 3.17742C52.1966 1.42214 57.0828 -0.000793457 63.1103 -0.000793457C69.1377 -0.000793457 74.0239 1.42214 74.0239 3.17742Z" fill="black"/>
<path d="M74.0239 103.821C74.0239 105.576 69.1377 106.999 63.1103 106.999C57.0828 106.999 52.1966 105.576 52.1966 103.821C52.1966 102.066 57.0828 100.643 63.1103 100.643C69.1377 100.643 74.0239 102.066 74.0239 103.821Z" fill="black"/>
<path d="M5.34767 4.23683H16.5275V103.821H5.34767V4.23683Z" fill="black"/>
<path d="M21.8513 3.17742C21.8513 4.93271 16.965 6.35564 10.9376 6.35564C4.91014 6.35564 0.0239258 4.93271 0.0239258 3.17742C0.0239258 1.42214 4.91014 -0.000793457 10.9376 -0.000793457C16.965 -0.000793457 21.8513 1.42214 21.8513 3.17742Z" fill="black"/>
<path d="M21.8513 103.821C21.8513 105.576 16.965 106.999 10.9376 106.999C4.91014 106.999 0.0239258 105.576 0.0239258 103.821C0.0239258 102.066 4.91014 100.643 10.9376 100.643C16.965 100.643 21.8513 102.066 21.8513 103.821Z" fill="black"/>
<path d="M31.434 4.23683H42.6139V103.821H31.434V4.23683Z" fill="black"/>
<path d="M47.9376 3.17742C47.9376 4.93271 43.0514 6.35564 37.0239 6.35564C30.9965 6.35564 26.1103 4.93271 26.1103 3.17742C26.1103 1.42214 30.9965 -0.000793457 37.0239 -0.000793457C43.0514 -0.000793457 47.9376 1.42214 47.9376 3.17742Z" fill="black"/>
<path d="M47.9376 103.821C47.9376 105.576 43.0514 106.999 37.0239 106.999C30.9965 106.999 26.1103 105.576 26.1103 103.821C26.1103 102.066 30.9965 100.643 37.0239 100.643C43.0514 100.643 47.9376 102.066 47.9376 103.821Z" fill="black"/>
</svg>
