<svg width="26" height="26" viewBox="0 0 26 26" fill="none" xmlns="http://www.w3.org/2000/svg">
<path fill-rule="evenodd" clip-rule="evenodd" d="M22.4296 10.9262L21.6724 10.169C21.3268 9.8223 21.1372 9.3608 21.1372 8.87224V7.78886C21.1372 6.1758 19.8242 4.86389 18.2122 4.86389H17.1267C16.6359 4.86389 16.1755 4.67431 15.831 4.32981L15.0608 3.56064C13.9157 2.42531 12.061 2.43072 10.9246 3.57256L10.1695 4.32981C9.82173 4.67539 9.36136 4.86497 8.87167 4.86497H7.78724C6.19367 4.86606 4.89367 6.14874 4.86442 7.73686C4.86333 7.75424 4.86225 7.77155 4.86225 7.78999V8.87005C4.86225 9.35974 4.67267 9.82011 4.32708 10.1657L3.56008 10.9339C3.559 10.9371 3.55575 10.9382 3.55358 10.9404C2.4215 12.0865 2.43125 13.9412 3.572 15.0711L4.32925 15.8305C4.67375 16.1761 4.86442 16.6354 4.86442 17.1251V18.2139C4.86442 19.8259 6.17524 21.1377 7.78724 21.1377H8.86948C9.36024 21.1389 9.82067 21.3284 10.1652 21.6719L10.9376 22.4421C11.4879 22.9892 12.2181 23.2904 12.9949 23.2904H13.0079C13.7889 23.2871 14.5213 22.9794 15.0694 22.428L15.8289 21.6697C16.1701 21.3295 16.6424 21.1345 17.1245 21.1345H18.2144C19.8231 21.1345 21.135 19.8247 21.1383 18.2139V17.1272C21.1383 16.6387 21.3279 16.1782 21.6713 15.8327L22.4415 15.0624C23.579 13.9184 23.5725 12.0627 22.4296 10.9262Z" fill="white"/>
<path fill-rule="evenodd" clip-rule="evenodd" d="M16.8823 11.438L12.4699 15.8526C12.3171 16.0053 12.1102 16.0909 11.8946 16.0909C11.679 16.0909 11.4721 16.0053 11.3205 15.8526L9.17865 13.7076C8.86233 13.3891 8.86233 12.8745 9.17971 12.5571C9.49821 12.2408 10.0117 12.2418 10.3291 12.5582L11.8957 14.1279L15.7329 10.2886C16.0503 9.97119 16.5649 9.97119 16.8823 10.2886C17.1997 10.606 17.1997 11.1206 16.8823 11.438Z" fill="#252525"/>
</svg>
